<?xml version="1.0" encoding="utf-8"?>
<!-- Generator: Adobe Illustrator 23.1.0, SVG Export Plug-In . SVG Version: 6.00 Build 0)  -->
<svg version="1.1" id="Capa_1" xmlns="http://www.w3.org/2000/svg" xmlns:xlink="http://www.w3.org/1999/xlink" x="0px" y="0px"
	 viewBox="0 0 198.4 141.7" style="enable-background:new 0 0 198.4 141.7;" xml:space="preserve">
<style type="text/css">
	.st0{fill:#BA0404;}
	.st1{fill:#020000;}
</style>
<path class="st0" d="M6.3,4.6C6.3,4.6,6.2,4.6,6.3,4.6c-0.6-0.1-1,0-1.5,0.2V1.3h4.2C8.7,1.5,8.6,1.7,8.4,1.8c0,0,0,0-0.1,0
	c0,0,0,0,0,0C7,2.5,6.8,3.6,6.3,4.6L6.3,4.6z M90.6,34.1v14.7c0,18.1-18,32.8-40.1,32.8H30.8v59h-7.2c0.1,0,0.1-0.1,0.2-0.1
	c-0.8,0-1.6-0.2-2.4,0.1H4.8v-14.9c0.1,0,0.1,0.1,0.2,0.1c0.2,0,0.4,0,0.4-0.3c0-0.1-0.2-0.1-0.3-0.2c-0.1,0.1-0.2,0.2-0.3,0.3V5.3
	c0.1,0,0.1,0,0.2,0c0.4-0.3,1-0.1,1.3-0.6c0,0,0.1,0,0.1,0C6.6,4.8,6.5,5,6.5,5.2C5.9,6,6.1,7.1,5.3,7.9C5,8.2,5,8.5,5.2,8.7
	c0.2,0.2,0.6-0.1,0.9,0C6.7,8.9,6,8.3,6.4,8.2C5.8,7.7,7.3,7.9,6.7,7.8C5.9,7.6,6.5,7.2,6.5,7.1C6.6,6.2,8,5.6,7.3,4.5
	c0,0,0.1-0.2,0.2-0.2c1-0.1,0.6-0.6,0.5-1c0-0.2-0.3-0.4,0.2-0.5c0.6-0.2,0.3-0.6,0-0.8c0,0,0,0,0,0c0,0,0,0,0,0
	c0.7,0.2,1-0.2,1.3-0.6H16c0,0.1,0,0.2,0.1,0.4c0.2-0.1,0.2-0.2,0.2-0.4h34.1c5.5,0,10.8,0.9,15.6,2.6c-0.2,0.6-1.1,0.7-1.3,1.3
	c0,0,0,0,0,0C64.2,5,64.3,4.4,63.7,4c0.1,1.6-1.8,0.9-2.5,1.6C61.8,6,63,5.1,63,6.6c0.4-0.8,0.9-1.3,1.8-1.5c0,0,0,0,0,0
	c0,0,0,0,0,0c0.8,0.1,1.1,0.3,0.8,1.1C65.3,7.1,64.9,8,64.9,9c0,2.6-1,5.1-0.2,7.7c0.5,1.7,0.6,3.4,0.4,5.2
	c-0.1,0.4-0.1,0.8,0.5,1.3c0-1.9,0.2-3.6-0.1-5.3c-0.3-1.9-0.1-3.8-0.1-5.7c0-1.2,0.1-2.5,0.4-3.8c0.3-1.4,0.2-3,2.1-3.7
	c9.7,3.8,17.1,10.7,20.5,19.1c0.1,0.7,0.3,1.4,0.4,2.1c0.1-0.1,0.2-0.2,0.3-0.3C89.9,28.3,90.6,31.1,90.6,34.1z M7.5,130.5
	c0.2-0.4-0.3-0.6-0.3-0.8c-0.1,0.1-0.3,0.1-0.3,0.2C6.8,130.2,7.2,130.3,7.5,130.5z M8.3,120.9c0,0.2,0.2,0.3,0.3,0.4
	c0.2-0.2,0.7-0.1,0.6-0.4c0-0.3-0.3-0.2-0.5-0.2C8.5,120.7,8.2,120.5,8.3,120.9z M9.2,134.9c0.1-0.1-0.1-0.2-0.2-0.2
	c-0.2,0.1-0.3,0.2-0.6,0.3c0.2,0.1,0.3,0.2,0.5,0.3C9,135.2,9.1,135.1,9.2,134.9z M9.6,127.2c-0.5-0.1-0.8,0-0.9,0.4
	c0,0.1,0.1,0.2,0.1,0.2C9.3,127.8,9.2,127.3,9.6,127.2z M8.8,8.2c0,0,0.2,0.1,0.2,0.1c0.2,0,0.5,0,0.4-0.2C9.5,8,9.3,8,9.3,7.9
	C9,7.9,8.9,8.1,8.8,8.2z M9.4,124.8c-0.1,0.1-0.1,0.2-0.1,0.2c0.3,0.2,0.6,0.1,0.9,0C9.9,125.2,9.8,124.5,9.4,124.8z M10.9,125.1
	c-0.3,0.4-0.9,0.5-1.4,0.9C10.5,126.2,10.9,125.8,10.9,125.1z M11.6,139.3c-0.5,0.3-0.7-0.2-1.1-0.2c-0.5,0-0.4,0.4-0.6,0.6
	c0,0,0.1,0.2,0.1,0.2C10.3,139.4,11.3,140.5,11.6,139.3z M11.5,127.9c-0.7,0-1-0.6-1.6-0.1c-0.3,0.2,0,0.3,0.1,0.4
	C10.7,128.7,11,128.2,11.5,127.9z M10.7,130.1c-0.1,0.1-0.3,0.2-0.4,0.4c0.1,0.3,0.3,0.3,0.5,0.3c0.2,0,0.4-0.1,0.3-0.3
	C11,130.3,10.8,130.2,10.7,130.1z M10.6,2.8c0,0,0.1,0.2,0.1,0.2c0.5,0,0.9-0.2,1.1-0.6C11.4,2.5,11,2.6,10.6,2.8z M10.9,121.6
	c0.5-0.5,1-0.1,1.5-0.3c0.2-0.1,0.4-0.1,0.4-0.3c0-0.1-0.1-0.2-0.1-0.3C12.2,121.2,10.9,120.2,10.9,121.6z M30.2,127.5
	c-1-0.1-1.8-0.2-2.4-0.6c-0.1-0.1-0.2,0-0.4,0c-1.2,0.4-2.5,0.2-3.7,0c-0.8-0.1,0.2-0.7-0.4-0.8c-0.1,0,0.3-0.1,0.5-0.1
	c0.2-0.1,0.6,0.1,0.8-0.1c-0.6-0.2-1.4-0.6-1.9-0.2c-0.7,0.5-1.3,0.4-2,0.2c-0.6-0.2-1.3-0.3-2-0.6c-0.3-0.1-0.5-0.5-0.8,0
	c-0.3,0.5,0.4,0.4,0.6,0.5c0.3,0.2,0.8,0.2,1.1,0.2c1,0,0.5,0.5,0.4,0.8c0,0,0,0-0.1,0c0,0,0,0,0,0c-0.1,0-0.1-0.1-0.2-0.1
	c-0.3-0.1-0.4-0.6-0.8-0.3c-0.2,0.1-0.3,0.3-0.3,0.5c0.1,0.5,0.6,0,0.9,0.2c0.1,0.1,0.3,0.2,0.4,0.1c0,0,0,0,0,0c0,0,0,0,0.1,0
	c-0.1,0.4,0.4,0.9-0.1,1.3c0,0,0,0,0,0c0,0,0,0,0,0c-0.4,0.4-0.9,0-1.3,0c0-0.2,0.2-0.2,0.4-0.2c0.4,0,0.7,0,0.9-0.3
	c0,0-0.1-0.2-0.2-0.2c-0.4-0.2-0.6,0-1,0.1c-0.6,0.2-0.3,0.4-0.3,0.7c0,0.1,0,0.3,0,0.4c0,0,0,0,0,0l0,0c-0.7,0.3,0,0.7-0.2,1.1
	c-0.7-0.1-0.6-0.7-1-1c-0.5-0.4-1.1-0.4-1.6,0.2c0.6,0.3,1.3,0.6,1.4,1.3c-0.7-0.1-1.1-0.4-1.8-0.1c-0.4,0.2-1-0.2-0.9-0.8
	c0.3-1,0.2-2.1,0.8-3.2c-0.6,0.1-1.1,0.2-1.1,0.4c0.2,1-0.3,0.4-0.7,0.3c-0.2-0.1,0-0.5-0.4-0.3c-0.1,0.1-0.2,0.3-0.2,0.4
	c0,0.2,0.3,0.4,0.6,0.3c0.5-0.1,0.8,0.1,0.8,0.5c0,0.4-0.6,0-0.8,0.3c0.1,0.3,0.8,0,0.6,0.4c-0.1,0.4-0.6,0.4-1.1,0.5c0,0,0,0,0,0
	c0,0,0,0,0.1,0c0,0-0.1,0-0.1,0c0-0.4-0.2-0.7-0.7-0.7c-0.2,0-0.4,0.1-0.3,0.3c0.1,0.4,0.5,0.5,1,0.4c0,0,0,0,0.1,0c0,0,0,0,0,0
	c-0.2,0.4-0.8,0.1-1,0.4c0,0,0,0,0,0c-0.5,0.2-1,0.3-0.4,0.8c0.1,0.1,0.2,0.3,0.3,0.5c0.1,0.4,0.3,0.5,0.8,0.3
	c0.3-0.1,0.8-0.1,1,0.1c0.4,0.3-0.7,0.3-0.4,0.7c1,0.1,0.6-0.8,1.4-1.1c0.8-0.2,1.4,0.2,2,0c0.2-0.1,0.3-0.1,0.5-0.2
	c0.2-0.1,0.1-0.6,0.6-0.3c0.1,0.1,0,0.4,0,0.6c0.4-0.2,0.8-0.6,1-0.6c1.1,0.4,2.2-0.5,3.3,0.1c0.5,0.2,0.9-0.1,1.1-0.4
	c0.2-0.3,0.3-0.6,0.2-0.9c-0.2-0.4-0.6,0.2-0.9,0c-0.3-0.5,0.2-0.6,0.6-0.9c-0.8,0.2-1.5,0-2.3,0c0,0,0,0,0,0c0,0,0,0,0,0
	c0.1-0.5-0.1-0.9-0.7-1.1c0,0,0,0,0-0.1c0,0,0,0,0,0c0-0.1,0-0.2,0-0.3c0,0,0,0,0,0c0,0,0,0,0,0c0.4-0.1,0.6,0.3,1,0.2
	c0,0.4,1.6-0.1,0.6,0.8c0.2,0.1,0.2,0.2,0.5,0.2c0.8-0.2,1.6-0.2,2.4-0.3c0.4-0.1,0.7-0.1,1.1,0.2c-0.4,0.1-0.7,0.1-0.9,0.2
	c-0.2,0.1-0.6-0.1-0.8,0.2c0.4,0.1,0.7,0.5,1,0.3c0.6-0.3,1.1-0.5,1.6,0.2c0.1,0.1,0.5,0.1,0.6,0c0.4-0.2-0.2-0.3,0-0.5
	c0.2-0.2-0.3-0.4-0.1-0.6C28.1,128.5,28.8,128.5,30.2,127.5z M13,132.4c0-0.2-0.1-0.6-0.5-0.6c-0.4,0-0.8,0.3-0.8,0.7
	c0,0.3,0.1,0.4,0.5,0.3C12.5,132.8,13.1,132.9,13,132.4z M12,123.4c-0.2-0.1-0.3,0-0.4,0.2c0,0.1,0.2,0.2,0.3,0.2
	c0.1,0,0.4,0.1,0.4-0.1C12.3,123.6,12.2,123.4,12,123.4z M11.7,125c0.3,0.3,0.7,0.2,1.2,0c-0.4-0.4-0.8-0.3-1.1-0.2
	C11.7,124.8,11.6,124.9,11.7,125z M12.1,127.4c0,0-0.3,0.1-0.3,0.2c0,0.2,0.4,0.1,0.4,0.2c0.2,0.2,0.3,0.1,0.3,0
	C12.5,127.6,12.3,127.5,12.1,127.4z M13,125.8c-0.3,0.1-0.7-0.1-1.1,0.1C12.3,126,12.7,126.2,13,125.8z M12.5,122.4
	c0.2,0,0.2-0.2,0.2-0.3c0-0.2-0.1-0.4-0.4-0.3c-0.1,0-0.2,0.2-0.2,0.3C12.2,122.3,12.3,122.5,12.5,122.4z M12.3,106.7
	c0.3-0.2,0.6-0.4,1.1-0.7C12.4,106.2,12.4,106.2,12.3,106.7z M12.3,9.3c0.1,0.1,0.2,0.2,0.3,0.3c0.1-0.6,1.2,0,1.1-0.7
	c0-0.1-0.2-0.3-0.6-0.2C12.5,8.9,12.3,8.9,12.3,9.3z M13.7,122.7c-0.6,0-0.9-0.2-1.2,0.1c0,0,0,0.2,0.1,0.2
	C13,123.2,13.1,122.9,13.7,122.7z M13.7,64.6c0.5-0.6,0.3-1-0.3-1.3c-0.1,0-0.3-0.2-0.4,0c-0.2,0.5,0.5,0.6,0.5,1
	C13.6,64.4,13.7,64.5,13.7,64.6z M13.4,123.2c0.4,0.2,0.5,0.4,0.7,0.4c0.1,0,0.2-0.2,0.2-0.2c-0.1-0.1-0.3-0.3-0.4-0.3
	C13.8,123,13.6,123.1,13.4,123.2z M14.8,133.9c-0.8-0.1-0.6,0.3-0.9,0.4c-0.5,0.2-0.6,0.4,0.1,0.4C14.7,134.7,14.1,134.1,14.8,133.9
	z M13.6,4.4c0,0.1,0.3,0.1,0.3,0.1c0.4-0.2,0.2-0.5,0.2-0.8C13.6,3.9,13.5,4.1,13.6,4.4z M13.8,119.8c-0.1,0.9,1.8,0.1,1.2,1.2
	c0.1,0,0.3,0.1,0.3,0.1c0.4-0.7,1.2,0,1.8-0.4C16,120.2,14.9,120,13.8,119.8z M15.5,121.8c-0.1-0.1-0.1-0.3-0.3-0.1
	c-0.6,0.8-0.7-0.2-1.3-0.2c-0.1,0.9-0.1,1,0.1,1c0.4,0,0.8-0.1,0.9,0.3c0.1,0.4,0.4,0.2,0.7,0.2C14.9,122.7,16,122.2,15.5,121.8z
	 M14.2,126.1c1.7-0.2,0.1-2,1.6-2.3C13.5,123.8,14.1,125.1,14.2,126.1z M14.9,6.7c-0.2,0.6,0.2,0.8,0.8,0.8c0.8,0,0.2-0.5,0.2-0.7
	c0.1-0.3,0-0.8-0.7-0.7C14.8,6.1,14.4,6.3,14.9,6.7z M15.9,127.8c0.3,0,0.5-0.1,0.6-0.3c0.1-0.6-0.6-0.1-0.8-0.4
	c-0.2-0.3-0.2,0.1-0.2,0.2C15.5,127.5,15.3,127.8,15.9,127.8z M16,137.1c0-0.1,0-0.3-0.1-0.5c-0.2,0.2-0.3,0.2-0.4,0.4
	c-0.1,0.1,0,0.3,0.2,0.3C15.9,137.4,16,137.3,16,137.1z M16,116.7c-0.2,0-0.4-0.1-0.6,0.2c0,0.2,0.1,0.3,0.3,0.3
	c0.2,0,0.4,0,0.5-0.1C16.3,116.9,16.2,116.7,16,116.7z M16.8,133.9c0-0.2,0.1-0.6-0.4-0.5c-0.6,0-0.4,0.5-0.7,0.7
	c0.1,0.2,0,0.5,0.3,0.4C16.3,134.4,16.9,134.4,16.8,133.9z M18.4,131.8c-0.8,0.5-1.5-0.4-2.3,0c-0.2,0.1-0.4,0.2-0.3,0.4
	c0,0.2,0.1,0.4,0.3,0.3C16.8,132.2,17.8,132.7,18.4,131.8z M16.4,137.8c-0.1-0.1-0.2-0.1-0.3-0.2c0,0.2,0,0.5-0.1,0.7
	C16,138.1,16.7,138.1,16.4,137.8z M18.3,126.5c0.1-0.1,0.1-0.2,0.1-0.3c-0.1-0.2-0.4-0.2-0.6-0.2c-0.6,0.1-1,0-0.8-0.7
	c0.1-0.2-0.2-0.5-0.6-0.4c-0.3,0.1-0.5,0.3-0.2,0.5c0,0.6,0,0.6,1.4,1C17.9,126.5,18.1,126.8,18.3,126.5z M16.9,123.1
	c0,0,0.4,0.4-0.1,0.4c-1,0-0.4,0.5-0.2,0.7c0.4,0.7,0.3-0.5,0.7-0.2c0,0,0,0,0,0c0,0,0.1,0,0.1,0c0.8,0.3,1.4,0.1,1.9-0.4
	c-0.6,0.1-1.2,0.3-1.9,0.4c0,0,0,0-0.1,0c0,0,0,0,0,0c0-0.4,1-0.6,0.2-1.1c0.3-0.4,0.7,0.5,1-0.1c0.1-0.1,0-0.5-0.2-0.4
	C17.8,122.6,16.7,121.9,16.9,123.1z M16.3,128.2c0.7,0.1,1.4,0.1,1.9-0.4C17.2,127.4,17.2,127.4,16.3,128.2z M17.3,137
	c0-0.2-0.2-0.3-0.4-0.3c-0.1,0-0.2,0.1-0.3,0.1c0.1,0.1,0.3,0.2,0.4,0.4C17.2,137.1,17.3,137.1,17.3,137z M17.8,133.2
	c-0.1-0.2,0-0.5-0.4-0.4c-0.2,0-0.2,0.2-0.2,0.2c0,0.4,0.1,0.5,0.4,0.5C17.6,133.4,17.9,133.4,17.8,133.2z M17.3,120.9
	c1.8,0.3-0.6,0.9,0.2,1.3c0.6-0.4,1.1-0.8,1.1-1.5C18.2,120.7,17.7,120.5,17.3,120.9z M17.4,117c0.2,0-0.2,0.3,0.2,0.2
	c0.1,0,0.3-0.2,0.3-0.3c0.1-0.2-0.1-0.3-0.3-0.2C17.4,116.7,17.4,116.8,17.4,117z M22.3,138.1c-1.2-0.1-2.5,0.5-3.7-0.2
	c0,0-0.3,0.1-0.3,0.2c-0.1,0.4-0.7,0.4-0.9,0.7c0.3,0.5,1.6,0.3,0.7,1.4c1.1-0.7,0.9-1-0.1-1.4c1.1-0.3,2.4-0.2,3.4,0.1
	c0.5,0.1,0.8,0,1-0.5C22.5,138.3,22.6,138.1,22.3,138.1z M18.1,117.4c-0.5,0.2-0.4,0.6-0.3,1.2C17.9,118,18.4,117.8,18.1,117.4z
	 M18.4,134.8c-0.3,0.1-0.3,0.4-0.7,0.4c0.1,0.1,0.2,0.2,0.3,0.3c0.4,0,0.5-0.3,0.8-0.5C18.6,135,18.5,134.8,18.4,134.8z M19,137.3
	c0-0.4,0-0.7,0-1.2C18,136.5,18,136.6,19,137.3z M18.5,134.4c1-0.1,1.9-0.5,2.9-0.4c0.7,0.1,1.3-0.4,0.7-1.1
	c-0.3-0.4-0.3-0.7-0.5-1.1c0.8,0,1.5-0.1,2.4,0.1c-0.2-0.7-0.8-0.6-1.3-0.6c-0.8,0-1.7-0.3-1.6,0.9c0,0.2,0.2,1.5-1.2,1.1
	C18.5,133,18.4,133.6,18.5,134.4z M18.8,120.4c0.1,0.2,0.3,0.4,0.5,0.3c0.3,0,0.5,0,0.5-0.2c0-0.3-0.5-0.2-0.7-0.4
	C19,120.2,18.8,120.4,18.8,120.4z M20.5,131.2c-0.3-0.6-1-0.1-1.6-0.5c0.3,0.6,0.8,0.4,1.1,0.7S20.6,131.4,20.5,131.2z M19.3,131.5
	c-0.1,0-0.4,0.3-0.3,0.5c0,0.2,0.1,0.4,0.4,0.3c0.2-0.1,0.4-0.2,0.6-0.3C19.8,131.8,19.6,131.5,19.3,131.5z M19.3,63.9
	c0.1,0.1,0.2,0.1,0.3,0c0.3-0.4,0.2-0.8-0.3-1.2C19.6,63.2,18.6,63.5,19.3,63.9z M19,36.5c0,0.1,0.1,0.2,0.1,0.3
	c0.3-0.1,0.8,0.1,1-0.3c0,0,0,0,0.1,0c0,0,0.1,0,0.1,0c0.6-0.1,1.4,0.1,1.8-0.7c-0.7,0.4-1.5,0.1-1.8,0.7c0,0-0.1,0-0.1,0
	c0,0,0,0,0,0C19.7,36.4,19.3,36.1,19,36.5z M20.5,123.5c-0.3-0.2-0.5-0.4-0.8-0.6c-0.2-0.1-0.4-0.1-0.4,0.2c0.1,0.8,1.1,1.1,2.2,0.6
	C21.2,123.4,20.8,123.7,20.5,123.5z M21.5,117.4c-0.5,0.1-0.9-0.4-1.4,0.1C20.6,117.4,21,118,21.5,117.4z M20.9,135.6
	c-0.4-0.1-0.7,0.1-0.8,0.4c0,0.2,0.1,0.3,0.3,0.3c0.3-0.1,0.7-0.1,0.8-0.4C21.2,135.8,21,135.6,20.9,135.6z M21.4,134.9
	c-0.3-0.3-0.7-0.2-1.2,0c0.4,0.4,0.8,0.3,1.1,0.2C21.4,135,21.5,134.9,21.4,134.9z M22.7,119.7c-0.7,0.5-1.4,0.5-2.5,0.5
	c0.9,0.5,3.9,0.3,4.3,0c0.1-0.1,0-0.3-0.1-0.2C23.8,120.4,23.4,119.3,22.7,119.7z M22.2,139.2c-0.5-0.1-0.6,0.2-1,0.3
	C21.7,139.7,22,139.6,22.2,139.2z M21.2,137.2c0.2,0.3,0.3,0.6,0.7,0.4c0.1-0.1,0.4-0.2,0.2-0.3C21.9,137.1,21.5,137.2,21.2,137.2z
	 M21.8,123.8c0.9,0.6,1.4,0.3,1.8-0.5C22.9,123.4,22.5,123.6,21.8,123.8z M23.3,118c-0.3-0.4-0.8-0.1-1.4-0.2
	c0.5,0.6,0.9,0.4,1.3,0.4C23.3,118.2,23.4,118,23.3,118z M22.6,135.3c0.3-0.1,0.5-0.2,0.5-0.5c0-0.3-0.1-0.4-0.5-0.4
	c-0.2,0-0.7-0.1-0.6,0.3C22.1,135,22.4,135.1,22.6,135.3z M22.2,102.9c0.4-0.3,0.8-0.2,0.8-0.5c0-0.1-0.1-0.2-0.2-0.2
	C22.5,102.2,22.3,102.4,22.2,102.9z M22.3,133.1c0.5,0.6,0.7,0.9,1,1.1c0.9-0.8,2.3-0.3,3.5-1.1C25.2,132.9,23.9,133.4,22.3,133.1z
	 M22.9,121c-0.2,0.5-0.4,0.9-0.6,1.6C23.9,122.3,23,121.5,22.9,121z M22.6,125.1c1.2,0.1,1.2,0.1,1.2-0.9
	C23.2,124.4,22.9,124.7,22.6,125.1z M22.8,137.6c0,0.2,0.2,0.2,0.5,0.2c0.1,0,0.3,0,0.3-0.2c0-0.2-0.1-0.3-0.3-0.3
	C23.1,137.4,22.8,137.4,22.8,137.6z M24.5,138.6c-1.1-0.2-0.9,0.5-1.5,0.7C24.1,139.6,23.9,138.8,24.5,138.6z M24.7,131.1
	c-0.5-0.4-0.4-0.9-1-1c0.1,0.4-0.6,0.7-0.5,0.9C23.4,131.3,23.9,131.1,24.7,131.1z M25.2,123.4c0-0.5-0.3,0.1-0.5,0
	c-0.3,0-0.6-0.6-0.8,0c-0.1,0.2,0,0.4,0.4,0.4C24.7,123.8,25.2,123.8,25.2,123.4z M24.3,37.8c-0.3,0.3,0.1,0.4,0.4,0.6
	c0.1-0.3,0.2-0.5,0-0.7C24.5,37.5,24.3,37.7,24.3,37.8z M24.2,41c0.3,0.3,0.6,0.6,1,1c0.2-0.6-0.1-0.9-0.5-1.1
	C24.6,40.9,24.4,41,24.2,41z M24.2,35.4c0.7,0.3,1-0.4,1.5-0.3c0-0.1,0-0.2-0.2-0.2C25,34.8,24.5,35,24.2,35.4z M25.2,131.9
	c-0.3-0.1-0.1-0.5-0.4-0.5c-0.4,0-0.3,0.3-0.4,0.5c-0.2,0.3,0.2,0.2,0.4,0.2C24.9,132,25.1,132.1,25.2,131.9z M29.7,129.7
	c-0.4-0.6-0.9-0.8-1.8-0.6c-0.8,0.2-1.7,0.8-2.4-0.3c-0.1-0.2-0.7-0.2-1,0c-0.3,0.3,0.1,0.3,0.4,0.4c0.5,0.1,0.2,0.2,0,0.2
	c-0.3,0-0.5,0.1-0.6,0.3C26.1,130.4,27.8,129.7,29.7,129.7z M24.5,125c0.3,0.3,0.6,0.1,0.9,0c0,0,0,0,0,0c0,0,0,0,0,0
	c0.3-0.1,1-0.1,0.5-0.8c0.1,0.5-0.6,0.4-0.5,0.8c0,0,0,0,0,0c0,0,0,0,0,0c-0.3-0.1-0.4-0.5-0.9-0.2C24.5,124.8,24.4,124.9,24.5,125z
	 M26.6,138.9c-0.6-0.1-1.2-0.3-1.9,0.2C25.5,139.2,26,139.1,26.6,138.9z M27,135.4c-0.7-0.6-1.3-0.1-1.9,0.1
	c0.2,0.1,0.5,0.1,0.7,0.2C26.7,135.9,27.4,135.7,27,135.4z M25.3,134.2c0,0,0,0.2,0.1,0.2c0.4,0.2,0.7,0.1,1-0.3
	C25.9,134.1,25.6,133.9,25.3,134.2z M25.3,17.4c1.8-1.8,1.7-4.2,3.2-6C26.4,13,26.2,15.3,25.3,17.4z M25.3,126
	c0.3,0.3,0.7,0.6,1.2,0.7c0.3,0.1,0.5-0.1,0.7-0.4c-0.1-0.6-0.8-0.4-1.2-0.7C25.6,125.4,25.2,125.9,25.3,126z M26.8,138.2
	c-0.5,0-0.6-0.6-1.1-0.4c-0.1,0-0.1,0.2-0.1,0.2C26,138.4,26.4,138.3,26.8,138.2z M25.9,132.1c0.6,0.3,1,0,1.5-0.2
	c-0.5-0.4-1-0.4-1.6-0.2C25.8,131.8,25.8,132.1,25.9,132.1z M27.4,118.5c0-0.1-0.1-0.3-0.1-0.3c-0.4,0.1-0.8,0.1-0.9,0.5
	C26.7,118.6,27.2,118.8,27.4,118.5z M27.2,122.9c-0.3,0-0.6,0.6-0.5,0.6c0.4,0.3,0.7,0.7,1.1,0.7c0.4,0,0.6-0.2,0.5-0.3
	C27.6,123.8,27.9,123,27.2,122.9z M27.4,134.3c0-0.1-0.1-0.2-0.2-0.2c-0.3,0-0.4,0.1-0.5,0.3c0,0,0.2,0.1,0.2,0.1
	C27.2,134.5,27.4,134.5,27.4,134.3z M29,125.2c-0.6,0-1.1-0.1-2,0.2C28,125.6,28.6,125.8,29,125.2z M28.1,122.2
	c0.2-0.2-0.2-0.1-0.2-0.2c-0.4,0-0.6,0.2-0.7,0.4c-0.1,0.2,0.2,0.2,0.3,0.2C28,122.8,28,122.4,28.1,122.2z M28.1,126
	c-0.1,0-0.4,0-0.3,0.2c0.2,0.1,0.1,0.5,0.5,0.5c0.3,0,0.2-0.2,0.2-0.3C28.5,126.1,28.4,126,28.1,126z M29.3,132.1
	c-0.4,0-0.7-0.6-1.2-0.1c-0.2,0.1-0.1,0.2,0,0.3C28.6,132.6,28.9,132.5,29.3,132.1z M28.7,118.3c-0.2,0.1-0.3,0.3-0.5,0.5
	c0.1,0.1,0.4,0.3,0.4,0.3c0.2-0.2,0.4-0.4,0.6-0.6C29.1,118.5,28.8,118.3,28.7,118.3z M29.8,123.9c-0.5,0-0.9-0.2-1.3,0.1
	c0,0,0.1,0.2,0.1,0.3C29.1,124.3,29.5,124.1,29.8,123.9z M30.4,122.5c-0.3-0.2-0.5-0.3-0.7-0.5c-0.3-0.2-0.6-0.3-0.9,0
	c-0.1,0.1-0.2,0.3-0.2,0.4c0.2,0.3,0.5,0.1,0.8,0.2C29.7,122.5,30,122.5,30.4,122.5z M29.5,126.2c-0.3,0.4-0.3,0.7,0.2,0.9
	c0.4-1.6,0.4-1.6-0.3-1.9C29.2,125.5,29.8,125.8,29.5,126.2z M29.6,119.4c0,0,0.3,0.1,0.3,0.1c0.3-0.1,0.6-0.4,0.4-0.8
	C30,118.9,29.6,119,29.6,119.4z M30.1,44.4c0.2-0.1,0.4-0.2,0.3-0.4c0-0.1-0.1-0.1-0.2-0.2c-0.3,0.1-0.3,0.3-0.3,0.4
	C29.9,44.3,29.9,44.4,30.1,44.4z M30.6,114.8c-0.1-0.3,0-0.7-0.5-0.8c0.4,0.3-0.3,0.6,0.2,0.9C30.3,114.9,30.4,114.8,30.6,114.8z
	 M64.6,48.8V34.1c0-6.4-6.3-11.5-14.1-11.5h-0.9c0,0,0,0,0-0.1c0-0.8-0.9-1.9,0.6-2.4c-0.5-0.4-0.8-0.3-1,0.2
	c-0.3,0.8-0.4,1.5-0.3,2.3H36.4c0-0.2-0.1-0.4-0.1-0.7c0-0.6,0.1-1.3-0.1-1.9c-0.3-1.3-0.3-2.7,0-4c0.6-2.8,1.4-5.5,2.2-8.4
	c0.1,0.2,0.3,0.3,0.3,0.4c0.1,0.5,0.5,0.3,0.8,0.3c0.1,0,0.3,0,0.1-0.2c-0.2-0.2-0.1-0.5-0.6-0.5c-1,0-0.9-0.7-1-1.3
	c-0.2,1.4-0.8,2.8-1.1,4.2c-0.6,2.3-1.4,4.5-1.5,6.8c-0.1,1.5,0.2,3,0.3,4.5c0,0.2,0,0.5,0,0.7h-5.1V39c-0.1,0-0.1,0.1-0.2,0.1
	c0.1,0.1,0.1,0.1,0.2,0.1v1.2c-0.1-0.1-0.2-0.1-0.2-0.1c-0.3,0.2-0.5,0.4-0.5,0.8c0,0.2-0.1,0.5,0.3,0.4c0.3-0.1,0.5-0.4,0.3-0.8
	c0.1-0.1,0.1-0.1,0.1-0.2v19.8h19.7C58.2,60.3,64.6,55.1,64.6,48.8z M33.3,13.2c0.6-0.2,0.5-0.6,0.3-1
	C33.4,12.5,32.9,12.8,33.3,13.2z M34.1,10.6c-0.2,0.3,0.2,0.4,0.2,0.6c0.9-0.2,0.2-1,0.8-1.3c0.3-0.1-0.1-0.2-0.2-0.4
	C34.7,9.9,34.4,10.2,34.1,10.6z M34.4,21.4c0.1-0.5,0.2-0.9,0.3-1.2C34.1,20.5,34.2,20.8,34.4,21.4z M36.2,7.8
	c0.1,0.1,0.2,0.2,0.3,0.3c0.1-0.1,0.4-0.2,0.4-0.4c0.1-0.2-0.2-0.3-0.5-0.3C36.3,7.5,36.1,7.5,36.2,7.8z M36.7,6
	c0.5,0,0.9,0,0.7-0.5C37.1,5.7,36.9,5.8,36.7,6z M37.9,4.5c0,0.1,0.2,0.2,0.3,0.3c0.3,0,0.4,0,0.4-0.2c0-0.2-0.2-0.2-0.4-0.2
	C38.1,4.4,37.8,4.3,37.9,4.5z M38.7,4.2C38.8,3.5,38.9,3,39,2.4C38.4,2.9,37.8,3.4,38.7,4.2z M42.7,3.2c0.1,0-0.1,0.3,0.2,0.2
	c0.2-0.1,0.6,0,0.5-0.4c0-0.2-0.3-0.2-0.4-0.2C42.7,2.8,42.6,2.9,42.7,3.2z M47.7,8.2c0.1,0.2,0.3,0.1,0.4,0.1c0.2,0,0.4,0,0.3-0.2
	c0-0.1-0.1-0.2-0.2-0.2C47.9,7.9,47.8,8.1,47.7,8.2z M48.5,4.4c0.1,0.1,0.3,0.3,0.4,0.4c0.1-0.1,0.3,0,0.3-0.2
	c-0.1-0.2-0.2-0.3-0.3-0.5C48.7,4.3,48.4,4.4,48.5,4.4z M49.3,72.5c-0.1,0-0.2-0.1-0.2-0.1c-0.3,0.2-0.1,0.5-0.1,0.8
	C49.1,72.9,49.5,72.8,49.3,72.5z M49,8.2c0.5-0.8,1.1,0.6,1.5-0.2c0.2-0.3,0.3-0.9-0.4-1.1C50.5,7.7,49.2,7.5,49,8.2z M50.1,68.5
	c0.1,0,0.2-0.2,0.2-0.2c-0.1-0.3-0.5-0.2-0.8-0.5C49.5,68.3,49.7,68.5,50.1,68.5z M50.2,73.2c-0.3,0.2-0.3,0.3-0.5,0.4
	c-0.9,0.7,0.4,0.1,0.3,0.3C50.5,73.8,50.2,73.6,50.2,73.2z M49.9,4.5C50,4.8,50,5.2,50.1,5.6C51,5.2,50,4.8,49.9,4.5z M50.2,4.1
	c0.1-0.3,0.2-0.6,0.2-0.9c-0.2,0-0.3,0-0.5,0C50,3.5,49.7,3.8,50.2,4.1z M51.1,16.5c0.7-0.1-0.2-0.7,0-1c0.1-0.1,0.1-0.3-0.2-0.3
	c0,0.1-0.1,0.1-0.1,0.2C50.9,15.8,50.6,16.6,51.1,16.5z M50.9,7.5c0,0,0.1,0.2,0.1,0.1c0.8-0.3,1.8,0.1,2.4-0.7c0,0,0.1,0,0.1,0
	c0,0,0,0,0.1,0c0.3,0,0.6,0.1,1,0.1c0.3,0,0.5-0.1,0.6-0.3c0.1-0.1,0-0.3-0.2-0.3c-0.2,0-0.5-0.1-0.6,0.2c-0.1,0.3-0.6,0.1-0.8,0.3
	c0,0-0.1,0-0.1,0c0,0-0.1,0-0.1,0c-0.8-0.1-1.5,0.4-2.3,0.3C51,7.3,50.9,7.4,50.9,7.5z M51.3,16.9c0,1,0,2,0,3
	C52,18.9,51.3,18,51.3,16.9z M53.7,68.5c0.3-0.6-0.2-0.7-0.7-0.8C53.1,68.1,53.4,68.3,53.7,68.5z M55.9,61.7
	c-0.1-0.2-0.4-0.4-0.7-0.5c0,0.2-0.3,0.5,0.2,0.6C55.6,61.9,55.8,61.8,55.9,61.7z M55.8,5.7c-0.1,0.3-0.2,0.7,0.1,1
	C56,6.4,56.7,6,55.8,5.7z M57.7,6c0,0.1,0.2,0.2,0.3,0.2c0.8-0.3,2-0.1,2.5-1.2c-1,0.3-1.8,0.5-2.5,0.7C57.7,5.7,57.6,5.8,57.7,6z
	 M58.7,3.5c0.4-0.2,0.8,0.3,1.3,0.1C59.6,3.1,59.2,3.1,58.7,3.5z M60.3,63.8c-0.2-0.3-0.5-0.5-1-0.2C59.7,63.6,59.9,64,60.3,63.8z
	 M60.9,25.7c-0.2,0-0.3,0-0.6,0.1c0.2,0.1,0.3,0.3,0.4,0.3c0.2,0.1,0.3,0,0.4-0.1C61.2,25.9,61.1,25.7,60.9,25.7z M62.4,7.6
	c-0.1-0.3,0.6-0.4,0.3-0.7c0,0-0.2-0.1-0.2-0.1C62.1,7,62.3,7.3,62.4,7.6z M64.3,59.4C64.3,59.4,64.2,59.4,64.3,59.4
	C64.2,59.3,64.2,59.4,64.3,59.4L64.3,59.4C64.2,59.3,64.2,59.3,64.3,59.4c0-0.9-0.9-0.6-1.3-0.9C63.3,58.9,63.4,59.4,64.3,59.4
	C64.2,59.3,64.2,59.3,64.3,59.4C64.2,59.4,64.2,59.4,64.3,59.4z M65.3,23.4c-0.2,0.2-0.6,0.3-0.4,0.6c0.1,0.1,0.2,0.1,0.3,0.2
	C65.2,23.9,65.2,23.6,65.3,23.4z M67,39.2c-0.5-0.1,0-0.8-0.6-0.7c-0.1,0-0.2,0.3-0.4,0.6c0.7-0.4-0.1,0.6,0.6,0.3
	C66.7,39.3,67.2,39.2,67,39.2z M86.7,36.8c-0.7-0.8-1.1-0.4-1.5,0.3C85.7,36.8,86.2,36.9,86.7,36.8z M85.7,28.1
	c0.2,0.2,0.4,0.4,0.7,0.3c0.2,0,0.4,0,0.4-0.2c0-0.3-0.5-0.2-0.7-0.4C85.9,27.9,85.8,28,85.7,28.1z M87.8,41.3
	c0-0.2-0.3-0.2-0.5-0.2c-0.1,0-0.3,0-0.2,0.1c0.2,0.2,0.3,0.3,0.5,0.3C87.7,41.5,87.8,41.4,87.8,41.3z M88.9,26.2
	c-0.9,0.5-0.1,1.1-0.3,1.7C89.4,27.5,88.5,26.8,88.9,26.2z"/>
<path class="st1" d="M100.1,109.5V88.2h91.5v21.3H100.1z M102.9,45.4v-7.8c0-20,16.2-36.3,36.3-36.3h13.2c20,0,36.3,16.2,36.3,36.3
	v7.8c0,20-16.2,36.3-36.3,36.3h-13.2C119.2,81.6,102.9,65.4,102.9,45.4z M128.9,48.8c0,6.4,6.3,11.5,14.1,11.5h5.6
	c7.8,0,14.1-5.2,14.1-11.5V34.1c0-6.4-6.3-11.5-14.1-11.5H143c-7.8,0-14.1,5.2-14.1,11.5V48.8z"/>
</svg>
